<?xml version="1.0" encoding="UTF-8"?><svg id="Camada_2" xmlns="http://www.w3.org/2000/svg" xmlns:xlink="http://www.w3.org/1999/xlink" viewBox="0 0 16 16"><defs><style>.cls-1{fill:#0c0c0c;}.cls-2{fill:#4fa8de;}.cls-3{clip-path:url(#clippath);}.cls-4{fill:none;}.cls-5{fill:#575da7;}</style><clipPath id="clippath"><rect class="cls-4" x="4.1" y="1.63" width="7.79" height="12.75"/></clipPath></defs><g id="Camada_1-2"><g><rect class="cls-1" width="16" height="16" rx="1.9" ry="1.9"/><g class="cls-3"><g><path class="cls-2" d="M8.01,2.66c1.11,1.41,1.7,3.14,1.68,4.92v.42l.37,.22c.47,.29,.82,.73,.99,1.25-.15-.11-.3-.21-.46-.3l-.97-.55-.18,1.1c-.02,.1-.04,.19-.06,.29h-2.73c-.04-.12-.07-.25-.1-.38l-.22-1-.9,.5c-.15,.08-.29,.18-.43,.28,.17-.51,.52-.95,.98-1.25l.35-.22v-.39c0-1.77,.6-3.49,1.7-4.89h0Zm0-1.04c-.06,0-.11,.02-.15,.06l-.02,.02c-1.46,1.61-2.27,3.69-2.28,5.85-.62,.4-1.08,.99-1.3,1.69-.22,.7-.18,1.45,.11,2.12,.3-.66,.81-1.2,1.44-1.56,.06,.27,.15,.54,.25,.8,.01,.05,.04,.09,.08,.13,.04,.03,.09,.05,.14,.05h3.52c.07,0,.14-.07,.18-.17,.1-.25,.17-.5,.21-.77,.64,.36,1.14,.9,1.44,1.56,.3-.67,.35-1.42,.13-2.12-.22-.7-.69-1.3-1.32-1.68,.03-2.17-.78-4.28-2.26-5.89-.02-.02-.05-.04-.08-.06-.03-.01-.06-.02-.1-.02h0Z"/><path class="cls-2" d="M8.01,7.35c-.19,0-.39-.06-.55-.16-.16-.11-.29-.26-.36-.43-.07-.18-.09-.37-.06-.56,.04-.19,.13-.36,.27-.5,.14-.14,.31-.23,.5-.27,.19-.04,.39-.02,.57,.05,.18,.07,.34,.2,.44,.35,.11,.16,.17,.35,.17,.54h0c0,.12-.02,.25-.06,.36-.05,.12-.11,.22-.2,.31-.09,.09-.19,.16-.31,.21-.12,.05-.24,.08-.37,.08-.02,0-.03,0-.05,0h0Z"/><path class="cls-5" d="M9.38,11.4c-.06,0-.13,0-.19,.03-.06,.02-.11,.06-.16,.1-.05,.04-.08,.1-.11,.15-.03,.06-.04,.12-.04,.18v1.47c0,.13,.05,.25,.14,.34,.09,.09,.22,.14,.35,.14s.26-.05,.35-.14c.09-.09,.14-.21,.14-.34v-1.45c0-.06,0-.12-.03-.18-.02-.06-.06-.11-.1-.16-.04-.05-.1-.08-.15-.11s-.12-.04-.18-.04h-.02Z"/><path class="cls-5" d="M6.64,11.4c-.06,0-.13,0-.19,.03-.06,.02-.12,.06-.16,.1-.05,.04-.09,.1-.11,.15-.03,.06-.04,.12-.04,.18v1.47c0,.13,.05,.25,.14,.34s.22,.14,.35,.14,.26-.05,.35-.14c.09-.09,.14-.21,.14-.34v-1.45c0-.06,0-.12-.03-.18-.02-.06-.06-.11-.1-.16-.04-.05-.1-.08-.15-.11-.06-.02-.12-.04-.18-.04h0Z"/><path class="cls-5" d="M7.97,11.4c-.06,0-.13,0-.19,.03-.06,.02-.11,.06-.16,.1-.05,.04-.08,.09-.11,.15-.03,.06-.04,.12-.04,.18v2.03c0,.13,.05,.25,.14,.34,.09,.09,.22,.14,.35,.14s.26-.05,.35-.14c.09-.09,.14-.21,.14-.34v-2c0-.06,0-.12-.03-.18-.02-.06-.06-.11-.1-.16-.04-.05-.1-.08-.15-.11-.06-.02-.12-.04-.18-.04h-.02Z"/></g></g></g></g></svg>